<?xml version="1.0" encoding="UTF-8" standalone="no"?>
<!-- Created with Inkscape (http://www.inkscape.org/) -->

<svg
   xmlns:dc="http://purl.org/dc/elements/1.1/"
   xmlns:cc="http://creativecommons.org/ns#"
   xmlns:rdf="http://www.w3.org/1999/02/22-rdf-syntax-ns#"
   xmlns:svg="http://www.w3.org/2000/svg"
   xmlns="http://www.w3.org/2000/svg"
   xmlns:sodipodi="http://sodipodi.sourceforge.net/DTD/sodipodi-0.dtd"
   xmlns:inkscape="http://www.inkscape.org/namespaces/inkscape"
   width="90"
   height="380"
   viewBox="0 0 23.8125 100.54167"
   version="1.1"
   id="svg8"
   inkscape:version="0.91 r13725"
   sodipodi:docname="CsoundReverb.svg"
   inkscape:export-filename="E:\Users\Martin\Documents\Rack_Source\Rack\plugins\ML-modules\res\Quantum.png"
   inkscape:export-xdpi="96"
   inkscape:export-ydpi="96">
  <defs
     id="defs2">
    <inkscape:perspective
       sodipodi:type="inkscape:persp3d"
       inkscape:vp_x="0 : 50.270835 : 1"
       inkscape:vp_y="0 : 1000 : 0"
       inkscape:vp_z="31.75 : 50.270835 : 1"
       inkscape:persp3d-origin="15.875 : 33.51389 : 1"
       id="perspective4742" />
  </defs>
  <sodipodi:namedview
     id="base"
     pagecolor="#ffffff"
     bordercolor="#666666"
     borderopacity="1.0"
     inkscape:pageopacity="0.0"
     inkscape:pageshadow="2"
     inkscape:zoom="2.16"
     inkscape:cx="40.401094"
     inkscape:cy="185.42592"
     inkscape:document-units="px"
     inkscape:current-layer="layer2"
     showgrid="true"
     units="px"
     fit-margin-top="0"
     fit-margin-left="0"
     fit-margin-right="0"
     fit-margin-bottom="0"
     showguides="false"
     inkscape:snap-to-guides="false"
     objecttolerance="20"
     inkscape:window-width="1920"
     inkscape:window-height="1030"
     inkscape:window-x="0"
     inkscape:window-y="0"
     inkscape:window-maximized="1"
     gridtolerance="17"
     inkscape:snap-perpendicular="false"
     inkscape:pagecheckerboard="true"
     inkscape:snap-page="false"
     inkscape:snap-text-baseline="true">
    <inkscape:grid
       type="xygrid"
       id="grid43"
       originx="-7.3436628e-018"
       originy="100.54167"
       spacingx="0.52916668"
       spacingy="0.52916668"
       dotted="false"
       empspacing="20" />
  </sodipodi:namedview>
  <metadata
     id="metadata5">
    <rdf:RDF>
      <cc:Work
         rdf:about="">
        <dc:format>image/svg+xml</dc:format>
        <dc:type
           rdf:resource="http://purl.org/dc/dcmitype/StillImage" />
        <dc:title />
      </cc:Work>
    </rdf:RDF>
  </metadata>
  <g
     inkscape:groupmode="layer"
     id="layer2"
     inkscape:label="Layer 2"
     style="display:inline">
    <rect
       style="fill:#00acf4;fill-opacity:1;stroke-width:0.26458335"
       id="rect4689"
       width="23.8125"
       height="100.54167"
       x="0.052476231"
       y="0.18521114" />
    <g
       aria-label="M"
       style="font-style:normal;font-variant:normal;font-weight:bold;font-stretch:normal;font-size:19.75555611px;line-height:1.25;font-family:Arial;-inkscape-font-specification:'Arial, Bold';font-variant-ligatures:normal;font-variant-caps:normal;font-variant-numeric:normal;font-feature-settings:normal;text-align:start;letter-spacing:0px;word-spacing:0px;writing-mode:lr-tb;text-anchor:start;fill:#000000;fill-opacity:1;stroke:none;stroke-width:0.26458335"
       id="text4720" />
    <g
       style="font-style:normal;font-variant:normal;font-weight:normal;font-stretch:normal;font-size:2.82222247px;line-height:1.25;font-family:Arial;-inkscape-font-specification:'Arial, Normal';font-variant-ligatures:normal;font-variant-caps:normal;font-variant-numeric:normal;font-feature-settings:normal;text-align:start;letter-spacing:0px;word-spacing:0px;writing-mode:lr-tb;text-anchor:start;fill:#000000;fill-opacity:1;stroke:none;stroke-width:0.26458335"
       id="text989" />
    <rect
       id="rect26-7-3-4-6-26-2-8-9"
       width="20.637501"
       height="15.345859"
       x="1.5575764"
       y="44.468693"
       style="fill:#f9f9f9;fill-opacity:1;stroke-width:0.80068338"
       ry="1.278821" />
    <rect
       id="rect26-7-3-4-6-26-2-8-4"
       width="20.637501"
       height="9.99475"
       x="1.5791934"
       y="60.866047"
       style="fill:#ffffff;fill-opacity:1;stroke-width:0.8006838"
       ry="0.83289552" />
    <rect
       style="fill:#ffffff;fill-opacity:1;stroke:none;stroke-width:0.26458335;stroke-opacity:1"
       id="rect842"
       width="6.2674704"
       height="0"
       x="-7.9512687"
       y="55.6404"
       ry="0" />
    <rect
       style="fill:#3c3c3c;fill-opacity:1;stroke:none;stroke-width:0.40818104;stroke-opacity:1"
       id="rect4778"
       width="8.9958334"
       height="11.112597"
       x="1.6260794"
       y="78.232368"
       ry="1.3096442" />
    <g
       aria-label="Left"
       style="font-style:normal;font-variant:normal;font-weight:normal;font-stretch:normal;font-size:2.82222223px;line-height:1.25;font-family:Arial;-inkscape-font-specification:'Arial, Normal';text-align:start;letter-spacing:0px;word-spacing:0px;writing-mode:lr-tb;text-anchor:start;fill:#ffffff;fill-opacity:1;stroke:none;stroke-width:0.26458335"
       id="text955"
       transform="translate(0.03857924,-3.7884469)">
      <path
         d="m 3.6462895,92.074982 0,-2.020204 0.2673394,0 0,1.781803 0.9949436,0 0,0.238401 z"
         id="path918"
         inkscape:connector-curvature="0" />
      <path
         d="m 6.1984162,91.603693 0.2563151,0.03169 q -0.060634,0.22462 -0.2246202,0.348643 -0.1639866,0.124024 -0.4189236,0.124024 -0.3210829,0 -0.5098742,-0.19706 -0.1874132,-0.198437 -0.1874132,-0.555349 0,-0.369314 0.1901693,-0.573264 0.1901693,-0.20395 0.4933377,-0.20395 0.2935221,0 0.4795573,0.199816 0.1860351,0.199815 0.1860351,0.562239 0,0.02205 -0.00138,0.06615 l -1.0914042,0 q 0.01378,0.241157 0.1364257,0.369314 0.1226454,0.128158 0.3059245,0.128158 0.1364258,0 0.2328885,-0.07166 0.096463,-0.07166 0.1529622,-0.228754 z m -0.8144206,-0.401009 0.8171767,0 Q 6.1846363,91.018026 6.1074653,90.925698 5.988954,90.782382 5.8001628,90.782382 q -0.1708768,0 -0.28801,0.114377 -0.1157552,0.114377 -0.1281576,0.305925 z"
         id="path920"
         inkscape:connector-curvature="0" />
      <path
         d="m 6.8268016,92.074982 0,-1.270552 -0.2191081,0 0,-0.192925 0.2191081,0 0,-0.155718 q 0,-0.14745 0.026183,-0.219108 0.035829,-0.09646 0.1254015,-0.155719 0.09095,-0.06063 0.253559,-0.06063 0.1047309,0 0.2315104,0.0248 l -0.037207,0.216352 q -0.07717,-0.01378 -0.1460721,-0.01378 -0.1129991,0 -0.1598524,0.04823 -0.046853,0.04823 -0.046853,0.180523 l 0,0.135048 0.2852533,0 0,0.192927 -0.2852539,0 0,1.270552 z"
         id="path922"
         inkscape:connector-curvature="0" />
      <path
         d="m 8.0918405,91.853118 0.035829,0.219108 q -0.1047309,0.02205 -0.1874132,0.02205 -0.1350477,0 -0.2094618,-0.04272 -0.074414,-0.04272 -0.1047309,-0.111621 -0.030317,-0.07028 -0.030317,-0.293522 l 0,-0.841983 -0.1819009,0 0,-0.192925 0.1819011,0 0,-0.362424 0.2466688,-0.148828 0,0.511252 0.2494249,0 0,0.192925 -0.2494249,0 0,0.855762 q 0,0.106109 0.012402,0.136426 0.01378,0.03032 0.042719,0.04823 0.030317,0.01792 0.085438,0.01792 0.041341,0 0.108865,-0.0096 z"
         id="path924"
         inkscape:connector-curvature="0" />
    </g>
    <rect
       style="fill:#3c3c3c;fill-opacity:1;stroke:none;stroke-width:0.40818104;stroke-opacity:1"
       id="rect4778-3"
       width="8.9958334"
       height="11.112597"
       x="13.267745"
       y="78.232437"
       ry="1.3096442" />
    <g
       aria-label="Right"
       style="font-style:normal;font-variant:normal;font-weight:normal;font-stretch:normal;font-size:2.82222223px;line-height:1.25;font-family:Arial;-inkscape-font-specification:'Arial, Normal';text-align:start;letter-spacing:0px;word-spacing:0px;writing-mode:lr-tb;text-anchor:start;fill:#ffffff;fill-opacity:1;stroke:none;stroke-width:0.26458335"
       id="text959"
       transform="translate(0.03857924,-3.7884469)">
      <path
         d="m 14.542438,92.074982 0,-2.020204 0.895725,0 q 0.270095,0 0.410655,0.05512 0.14056,0.05374 0.22462,0.191548 0.08406,0.137803 0.08406,0.304546 0,0.214974 -0.139182,0.362424 -0.139182,0.14745 -0.429948,0.187413 0.106109,0.05099 0.16123,0.100597 0.117134,0.107487 0.221865,0.268717 l 0.351399,0.549838 -0.33624,0 -0.267339,-0.420301 q -0.117134,-0.181901 -0.192926,-0.278364 -0.07579,-0.09646 -0.136426,-0.135047 -0.05926,-0.03858 -0.121267,-0.05374 -0.04547,-0.0096 -0.148828,-0.0096 l -0.310059,0 0,0.897103 z m 0.267339,-1.128614 0.574642,0 q 0.183279,0 0.286632,-0.03721 0.103353,-0.03858 0.157097,-0.121267 0.05374,-0.08406 0.05374,-0.181901 0,-0.143316 -0.104731,-0.235645 -0.103353,-0.09233 -0.327973,-0.09233 l -0.63941,0 z"
         id="path907"
         inkscape:connector-curvature="0" />
      <path
         d="m 16.547483,90.340032 0,-0.285254 0.248047,0 0,0.285254 z m 0,1.73495 0,-1.463477 0.248047,0 0,1.463477 z"
         id="path909"
         inkscape:connector-curvature="0" />
      <path
         d="m 17.129016,92.196249 0.241156,0.03583 q 0.01516,0.111621 0.08406,0.162609 0.09233,0.0689 0.252181,0.0689 0.172254,0 0.265961,-0.0689 0.09371,-0.0689 0.12678,-0.192926 0.01929,-0.07579 0.01791,-0.318327 -0.162608,0.191548 -0.405143,0.191548 -0.301791,0 -0.467155,-0.21773 -0.165365,-0.21773 -0.165365,-0.522277 0,-0.209462 0.07579,-0.385851 0.07579,-0.177766 0.219108,-0.274229 0.144694,-0.09646 0.338998,-0.09646 0.259071,0 0.427192,0.209462 l 0,-0.176389 0.228754,0 0,1.265039 q 0,0.341754 -0.07028,0.483692 -0.0689,0.143316 -0.220486,0.225998 -0.150206,0.08268 -0.370692,0.08268 -0.261828,0 -0.423058,-0.118511 -0.16123,-0.117133 -0.155718,-0.354156 z m 0.205327,-0.879188 q 0,0.28801 0.114378,0.420301 0.114377,0.132292 0.286631,0.132292 0.170877,0 0.286632,-0.130914 0.115756,-0.132291 0.115756,-0.413411 0,-0.268718 -0.11989,-0.405143 -0.118511,-0.136426 -0.286632,-0.136426 -0.165364,0 -0.281119,0.135048 -0.115756,0.133669 -0.115756,0.398253 z"
         id="path911"
         inkscape:connector-curvature="0" />
      <path
         d="m 18.745454,92.074982 0,-2.020204 0.248047,0 0,0.724848 q 0.173633,-0.201194 0.438216,-0.201194 0.162609,0 0.282498,0.06477 0.119889,0.06339 0.170877,0.176389 0.05236,0.112999 0.05236,0.327973 l 0,0.92742 -0.248042,0 0,-0.92742 q 0,-0.186035 -0.0813,-0.270096 -0.07993,-0.08544 -0.227376,-0.08544 -0.110243,0 -0.208084,0.05788 -0.09646,0.0565 -0.137804,0.15434 -0.04134,0.09784 -0.04134,0.270095 l 0,0.800641 z"
         id="path913"
         inkscape:connector-curvature="0" />
      <path
         d="m 20.857987,91.853118 0.03583,0.219108 q -0.104731,0.02205 -0.187413,0.02205 -0.135048,0 -0.209462,-0.04272 -0.07441,-0.04272 -0.104731,-0.111621 -0.03032,-0.07028 -0.03032,-0.293522 l 0,-0.841983 -0.181901,0 0,-0.192925 0.181901,0 0,-0.362424 0.246669,-0.148828 0,0.511252 0.249425,0 0,0.192925 -0.249425,0 0,0.855762 q 0,0.106109 0.0124,0.136426 0.01378,0.03032 0.04272,0.04823 0.03032,0.01792 0.08544,0.01792 0.04134,0 0.108865,-0.0096 z"
         id="path915"
         inkscape:connector-curvature="0" />
    </g>
    <rect
       id="rect26-7-3-4-6-26-2-8-9-7"
       width="20.637495"
       height="15.346168"
       x="1.6549046"
       y="28.088297"
       style="fill:#f9f9f9;fill-opacity:1;stroke-width:0.80069131"
       ry="1.2788466" />
    <g
       aria-label="Outputs"
       style="font-style:normal;font-variant:normal;font-weight:bold;font-stretch:normal;font-size:2.82222223px;line-height:1.25;font-family:Arial;-inkscape-font-specification:'Arial, Bold';text-align:start;letter-spacing:0px;word-spacing:0px;writing-mode:lr-tb;text-anchor:start;display:inline;fill:#000000;fill-opacity:1;stroke:none;stroke-width:0.26458335"
       id="text985-7-43-2"
       transform="translate(0.03857924,-3.7884469)">
      <path
         d="m 6.2080698,79.435642 q 0,-0.30868 0.092329,-0.518142 0.068902,-0.15434 0.1874132,-0.276986 0.1198893,-0.122645 0.2618272,-0.181901 0.1887913,-0.07993 0.4354601,-0.07993 0.4464844,0 0.7138238,0.276986 0.2687174,0.276985 0.2687174,0.770323 0,0.489204 -0.2659613,0.766189 -0.2659614,0.275608 -0.7110677,0.275608 -0.4506185,0 -0.7165799,-0.27423 -0.2659614,-0.275607 -0.2659614,-0.757921 z m 0.4203017,-0.01378 q 0,0.343131 0.1584744,0.520898 0.1584744,0.176389 0.4023871,0.176389 0.2439128,0 0.3996311,-0.175011 0.1570964,-0.176388 0.1570964,-0.527788 0,-0.347266 -0.1529623,-0.518143 -0.1515842,-0.170876 -0.4037652,-0.170876 -0.252181,0 -0.4065212,0.173633 -0.1543403,0.172254 -0.1543403,0.520898 z"
         id="path847"
         inkscape:connector-curvature="0" />
      <path
         d="m 9.4450817,80.433342 0,-0.219108 q -0.079926,0.117133 -0.2108399,0.184657 -0.1295356,0.06752 -0.2742296,0.06752 -0.1474501,0 -0.2645833,-0.06477 -0.1171333,-0.06477 -0.1694987,-0.181901 -0.052365,-0.117133 -0.052365,-0.323839 l 0,-0.926042 0.3872288,0 0,0.672483 q 0,0.308681 0.02067,0.378961 0.022049,0.0689 0.078548,0.110243 0.0565,0.03996 0.143316,0.03996 0.099219,0 0.1777669,-0.05374 0.078548,-0.05512 0.107487,-0.135048 0.028939,-0.0813 0.028939,-0.395496 l 0,-0.617362 0.3872287,0 0,1.463477 z"
         id="path849"
         inkscape:connector-curvature="0" />
      <path
         d="m 10.878241,78.969865 0,0.308681 -0.264583,0 0,0.5898 q 0,0.179145 0.0069,0.209462 0.0083,0.02894 0.03445,0.04823 0.02756,0.01929 0.06615,0.01929 0.05374,0 0.155718,-0.03721 l 0.03307,0.300412 q -0.135047,0.05788 -0.305924,0.05788 -0.104731,0 -0.188791,-0.03445 -0.08406,-0.03583 -0.124024,-0.09095 -0.03859,-0.0565 -0.05374,-0.151584 -0.0124,-0.06752 -0.0124,-0.272851 l 0,-0.638032 -0.177767,0 0,-0.308681 0.177767,0 0,-0.290766 0.388607,-0.225998 0,0.516764 z"
         id="path851"
         inkscape:connector-curvature="0" />
      <path
         d="m 11.13869,78.969865 0.361046,0 0,0.214974 q 0.07028,-0.110243 0.19017,-0.179145 0.119889,-0.0689 0.265961,-0.0689 0.254937,0 0.432704,0.199816 0.177767,0.199816 0.177767,0.556727 0,0.366559 -0.179145,0.570508 -0.179145,0.202572 -0.434082,0.202572 -0.121267,0 -0.220486,-0.04823 -0.09784,-0.04823 -0.206706,-0.165365 l 0,0.73725 -0.387229,0 z m 0.383095,0.706934 q 0,0.246669 0.09784,0.36518 0.09784,0.117133 0.2384,0.117133 0.135048,0 0.224621,-0.107487 0.08957,-0.108865 0.08957,-0.355533 0,-0.230133 -0.09233,-0.341754 -0.09233,-0.111621 -0.228754,-0.111621 -0.141938,0 -0.235644,0.110243 -0.09371,0.108865 -0.09371,0.323839 z"
         id="path853"
         inkscape:connector-curvature="0" />
      <path
         d="m 13.838268,80.433342 0,-0.219108 q -0.07993,0.117133 -0.21084,0.184657 -0.129536,0.06752 -0.27423,0.06752 -0.14745,0 -0.264583,-0.06477 -0.117134,-0.06477 -0.169499,-0.181901 -0.05236,-0.117133 -0.05236,-0.323839 l 0,-0.926042 0.387228,0 0,0.672483 q 0,0.308681 0.02067,0.378961 0.02205,0.0689 0.07855,0.110243 0.0565,0.03996 0.143316,0.03996 0.09922,0 0.177767,-0.05374 0.07855,-0.05512 0.107487,-0.135048 0.02894,-0.0813 0.02894,-0.395496 l 0,-0.617362 0.387228,0 0,1.463477 z"
         id="path855"
         inkscape:connector-curvature="0" />
      <path
         d="m 15.271427,78.969865 0,0.308681 -0.264583,0 0,0.5898 q 0,0.179145 0.0069,0.209462 0.0083,0.02894 0.03445,0.04823 0.02756,0.01929 0.06615,0.01929 0.05374,0 0.155718,-0.03721 l 0.03307,0.300412 q -0.135048,0.05788 -0.305925,0.05788 -0.10473,0 -0.188791,-0.03445 -0.08406,-0.03583 -0.124023,-0.09095 -0.03859,-0.0565 -0.05374,-0.151584 -0.0124,-0.06752 -0.0124,-0.272851 l 0,-0.638029 -0.177783,0 0,-0.308681 0.177767,0 0,-0.290766 0.388607,-0.225998 0,0.516764 z"
         id="path857"
         inkscape:connector-curvature="0" />
      <path
         d="m 15.406475,80.015796 0.388607,-0.05925 q 0.0248,0.112999 0.100597,0.172255 0.07579,0.05788 0.212217,0.05788 0.150207,0 0.225999,-0.05512 0.05099,-0.03858 0.05099,-0.103353 0,-0.0441 -0.02756,-0.07304 -0.02894,-0.02756 -0.129535,-0.05099 -0.468533,-0.103353 -0.593935,-0.188791 -0.173633,-0.118511 -0.173633,-0.329351 0,-0.190169 0.150207,-0.319705 0.150206,-0.129536 0.465777,-0.129536 0.300412,0 0.446484,0.09784 0.146072,0.09784 0.201194,0.289388 l -0.365181,0.06752 q -0.02343,-0.08544 -0.08957,-0.130914 -0.06477,-0.04548 -0.186035,-0.04548 -0.152962,0 -0.219108,0.04272 -0.0441,0.03032 -0.0441,0.07855 0,0.04134 0.03859,0.07028 0.05236,0.03858 0.361046,0.108865 0.310058,0.07028 0.432704,0.172254 0.121267,0.103353 0.121267,0.28801 0,0.201194 -0.168121,0.345888 -0.16812,0.144694 -0.497472,0.144694 -0.299034,0 -0.474045,-0.121267 -0.173633,-0.121268 -0.227376,-0.329352 z"
         id="path859"
         inkscape:connector-curvature="0" />
    </g>
    <g
       style="font-style:normal;font-variant:normal;font-weight:bold;font-stretch:normal;font-size:2.64583349px;line-height:125%;font-family:sans-serif;-inkscape-font-specification:'sans-serif Bold';letter-spacing:0px;word-spacing:0px;fill:#000000;fill-opacity:1;stroke:none;stroke-width:1px;stroke-linecap:butt;stroke-linejoin:miter;stroke-opacity:1"
       id="text3401"
       transform="translate(-0.02316842,-0.60237889)">
      <path
         d="m 7.2995544,6.3347554 q 0.1563212,0 0.2235006,-0.058136 0.068471,-0.058136 0.068471,-0.1912028 0,-0.131775 -0.068471,-0.188619 -0.067179,-0.056844 -0.2235006,-0.056844 l -0.2092896,0 0,0.4948019 0.2092896,0 z m -0.2092896,0.3436483 0,0.7299296 -0.4973856,0 0,-1.9288229 0.7596436,0 q 0.3811137,0 0.5581055,0.1278991 0.1782837,0.1278992 0.1782837,0.4043681 0,0.1912028 -0.093018,0.3139344 -0.091726,0.1227315 -0.2777609,0.1808675 0.102061,0.023254 0.1821595,0.1059367 0.08139,0.08139 0.1640726,0.2480469 l 0.2700094,0.5477702 -0.5296834,0 L 7.5695638,6.9290344 Q 7.4985087,6.7843403 7.4248698,6.731372 7.3525228,6.6784037 7.2310831,6.6784037 l -0.1408183,0 z"
         id="path3406"
         inkscape:connector-curvature="0" />
      <path
         d="m 8.6289307,5.4795104 1.3422954,0 0,0.375946 -0.8449097,0 0,0.3591512 0.7945251,0 0,0.3759461 -0.7945251,0 0,0.4418335 0.8733317,0 0,0.3759461 -1.3707174,0 0,-1.9288229 z"
         id="path3408"
         inkscape:connector-curvature="0" />
      <path
         d="m 10.207646,5.4795104 0.499969,0 0.511597,1.4236857 0.510305,-1.4236857 0.499969,0 -0.714426,1.9288229 -0.592987,0 -0.714427,-1.9288229 z"
         id="path3410"
         inkscape:connector-curvature="0" />
      <path
         d="m 12.483993,5.4795104 1.342295,0 0,0.375946 -0.844909,0 0,0.3591512 0.794525,0 0,0.3759461 -0.794525,0 0,0.4418335 0.873331,0 0,0.3759461 -1.370717,0 0,-1.9288229 z"
         id="path3412"
         inkscape:connector-curvature="0" />
      <path
         d="m 14.999343,6.3347554 q 0.156322,0 0.223501,-0.058136 0.06847,-0.058136 0.06847,-0.1912028 0,-0.131775 -0.06847,-0.188619 -0.06718,-0.056844 -0.223501,-0.056844 l -0.209289,0 0,0.4948019 0.209289,0 z m -0.209289,0.3436483 0,0.7299296 -0.497386,0 0,-1.9288229 0.759644,0 q 0.381114,0 0.558105,0.1278991 0.178284,0.1278992 0.178284,0.4043681 0,0.1912028 -0.09302,0.3139344 -0.09173,0.1227315 -0.27776,0.1808675 0.102061,0.023254 0.182159,0.1059367 0.08139,0.08139 0.164073,0.2480469 l 0.270009,0.5477702 -0.529683,0 -0.235128,-0.4792989 Q 15.198298,6.7843403 15.124659,6.731372 15.052312,6.6784037 14.930872,6.6784037 l -0.140818,0 z"
         id="path3414"
         inkscape:connector-curvature="0" />
      <path
         d="m 17.101283,6.2262348 q 0.117564,0 0.178283,-0.051676 0.06072,-0.051676 0.06072,-0.1524455 0,-0.099477 -0.06072,-0.1511536 -0.06072,-0.052968 -0.178283,-0.052968 l -0.275177,0 0,0.4082438 0.275177,0 z m 0.01679,0.8436178 q 0.149862,0 0.224793,-0.063304 0.07622,-0.063304 0.07622,-0.1912028 0,-0.1253154 -0.07493,-0.1873271 -0.07493,-0.063304 -0.226085,-0.063304 l -0.291971,0 0,0.5051371 0.291971,0 z m 0.462505,-0.6937561 q 0.160197,0.046509 0.248046,0.1718242 0.08785,0.1253153 0.08785,0.3074747 0,0.2790528 -0.188619,0.4159953 -0.188619,0.1369426 -0.573608,0.1369426 l -0.825531,0 0,-1.9288229 0.746724,0 q 0.401785,0 0.58136,0.1214396 0.180868,0.1214396 0.180868,0.3888651 0,0.1408183 -0.06589,0.2402955 -0.06589,0.098185 -0.191202,0.1459859 z"
         id="path3416"
         inkscape:connector-curvature="0" />
    </g>
    <g
       style="font-style:normal;font-weight:normal;font-size:2.64583349px;line-height:125%;font-family:sans-serif;letter-spacing:0px;word-spacing:0px;fill:#000000;fill-opacity:1;stroke:none;stroke-width:1px;stroke-linecap:butt;stroke-linejoin:miter;stroke-opacity:1"
       id="text4201"
       transform="translate(-0.22082356,-4.1343173)">
      <path
         d="m 7.6123235,67.254236 0,0.706675 0.4185791,0 q 0.2105815,0 0.3113505,-0.08656 0.102061,-0.08785 0.102061,-0.267426 0,-0.180867 -0.102061,-0.266133 -0.100769,-0.08656 -0.3113505,-0.08656 l -0.4185791,0 z m 0,-0.793234 0,0.58136 0.3862813,0 q 0.1912029,0 0.2842204,-0.07106 0.094309,-0.07235 0.094309,-0.219625 0,-0.145986 -0.094309,-0.218333 -0.093018,-0.07235 -0.2842204,-0.07235 l -0.3862813,0 z m -0.260966,-0.214457 0.666626,0 q 0.2984314,0 0.4599203,0.124023 0.1614888,0.124024 0.1614888,0.352692 0,0.176992 -0.082682,0.281637 -0.082682,0.104645 -0.2428792,0.130483 0.1924947,0.04134 0.2984314,0.173116 0.1072286,0.130483 0.1072286,0.326853 0,0.258382 -0.1756999,0.399201 -0.1757001,0.140818 -0.4999698,0.140818 l -0.6924642,0 0,-1.928823 z"
         id="path4242"
         inkscape:connector-curvature="0" />
      <path
         d="m 9.7568956,68.309727 q -0.1007691,0.258382 -0.1963705,0.337188 -0.095601,0.07881 -0.2557983,0.07881 l -0.1899109,0 0,-0.198954 0.1395263,0 q 0.098185,0 0.1524455,-0.04651 0.05426,-0.04651 0.1201477,-0.219625 l 0.042633,-0.10852 -0.5852356,-1.423686 0.2519226,0 0.4521688,1.131714 0.4521688,-1.131714 0.251923,0 -0.6356205,1.581299 z"
         id="path4244"
         inkscape:connector-curvature="0" />
      <path
         d="m 10.950621,67.958327 0,0.767395 -0.239003,0 0,-1.997294 0.239003,0 0,0.219625 q 0.07493,-0.129191 0.188619,-0.191203 0.114981,-0.0633 0.273886,-0.0633 0.263549,0 0.427622,0.20929 0.165365,0.209289 0.165365,0.550354 0,0.341064 -0.165365,0.550354 -0.164073,0.209289 -0.427622,0.209289 -0.158905,0 -0.273886,-0.06201 -0.113688,-0.0633 -0.188619,-0.192495 z m 0.808737,-0.505137 q 0,-0.262258 -0.108521,-0.410828 Q 11.543609,66.8925 11.35499,66.8925 q -0.188619,0 -0.29714,0.149862 -0.107229,0.14857 -0.107229,0.410828 0,0.262258 0.107229,0.412119 0.108521,0.14857 0.29714,0.14857 0.188619,0 0.295847,-0.14857 0.108521,-0.149861 0.108521,-0.412119 z"
         id="path4246"
         inkscape:connector-curvature="0" />
      <path
         d="m 13.057728,67.448022 q -0.288096,0 -0.3992,0.06589 -0.111105,0.06589 -0.111105,0.224792 0,0.126607 0.08268,0.201538 0.08397,0.07364 0.227376,0.07364 0.197662,0 0.316518,-0.139526 0.120148,-0.140819 0.120148,-0.373362 l 0,-0.05297 -0.23642,0 z m 0.474131,-0.09819 0,0.825531 -0.237711,0 0,-0.219625 q -0.08139,0.131775 -0.20283,0.195079 -0.12144,0.06201 -0.29714,0.06201 -0.222208,0 -0.353983,-0.124023 -0.130483,-0.125315 -0.130483,-0.334605 0,-0.244171 0.16278,-0.368195 0.164073,-0.124023 0.488343,-0.124023 l 0.333313,0 0,-0.02325 q 0,-0.164073 -0.108521,-0.253215 -0.107228,-0.09043 -0.302307,-0.09043 -0.124023,0 -0.241587,0.02971 -0.117564,0.02971 -0.226085,0.08914 l 0,-0.219625 q 0.130483,-0.05038 0.253215,-0.07493 0.122731,-0.02584 0.239003,-0.02584 0.313935,0 0.468964,0.162781 0.155029,0.162781 0.155029,0.49351 z"
         id="path4248"
         inkscape:connector-curvature="0" />
      <path
         d="m 14.94521,66.771061 0,0.224792 q -0.100769,-0.05168 -0.20929,-0.07751 -0.10852,-0.02584 -0.224792,-0.02584 -0.176992,0 -0.266134,0.05426 -0.08785,0.05426 -0.08785,0.162781 0,0.08268 0.0633,0.130483 0.0633,0.04651 0.254506,0.08914 l 0.08139,0.01809 q 0.253214,0.05426 0.359151,0.153738 0.107229,0.09819 0.107229,0.275177 0,0.201538 -0.160197,0.319102 -0.158905,0.117563 -0.437958,0.117563 -0.116272,0 -0.242879,-0.02325 -0.125316,-0.02196 -0.264842,-0.06718 l 0,-0.245463 q 0.131775,0.06847 0.259674,0.103352 0.127899,0.03359 0.253215,0.03359 0.167948,0 0.258382,-0.05684 0.09043,-0.05814 0.09043,-0.162781 0,-0.09689 -0.06589,-0.148569 -0.0646,-0.05168 -0.285512,-0.09948 l -0.08268,-0.01938 q -0.220916,-0.04651 -0.319102,-0.14211 -0.09818,-0.09689 -0.09818,-0.264842 0,-0.204122 0.144694,-0.315226 0.144694,-0.111105 0.410828,-0.111105 0.131775,0 0.248047,0.01938 0.116272,0.01938 0.214457,0.05814 z"
         id="path4250"
         inkscape:connector-curvature="0" />
      <path
         d="m 16.32497,66.771061 0,0.224792 q -0.100769,-0.05168 -0.209289,-0.07751 -0.108521,-0.02584 -0.224793,-0.02584 -0.176992,0 -0.266133,0.05426 -0.08785,0.05426 -0.08785,0.162781 0,0.08268 0.0633,0.130483 0.0633,0.04651 0.254507,0.08914 l 0.08139,0.01809 q 0.253215,0.05426 0.359151,0.153738 0.107229,0.09819 0.107229,0.275177 0,0.201538 -0.160197,0.319102 -0.158905,0.117563 -0.437958,0.117563 -0.116272,0 -0.242879,-0.02325 -0.125315,-0.02196 -0.264842,-0.06718 l 0,-0.245463 q 0.131775,0.06847 0.259674,0.103352 0.127899,0.03359 0.253215,0.03359 0.167948,0 0.258382,-0.05684 0.09043,-0.05814 0.09043,-0.162781 0,-0.09689 -0.06589,-0.148569 -0.06459,-0.05168 -0.285512,-0.09948 l -0.08268,-0.01938 q -0.220917,-0.04651 -0.319102,-0.14211 -0.09819,-0.09689 -0.09819,-0.264842 0,-0.204122 0.144694,-0.315226 0.144694,-0.111105 0.410828,-0.111105 0.131775,0 0.248047,0.01938 0.116272,0.01938 0.214457,0.05814 z"
         id="path4252"
         inkscape:connector-curvature="0" />
    </g>
    <g
       style="font-style:normal;font-weight:normal;font-size:2.64583349px;line-height:125%;font-family:sans-serif;letter-spacing:0px;word-spacing:0px;fill:#000000;fill-opacity:1;stroke:none;stroke-width:1px;stroke-linecap:butt;stroke-linejoin:miter;stroke-opacity:1"
       id="text4205"
       transform="translate(0.06740453,1.6299667)">
      <path
         d="m 5.5513406,27.70451 1.1084595,0 0,0.219625 -0.8474935,0 0,0.568441 0.7648112,0 0,0.219625 -0.7648112,0 0,0.921132 -0.260966,0 0,-1.928823 z"
         id="path4214"
         inkscape:connector-curvature="0" />
      <path
         d="m 8.1584168,28.850435 0,0.116272 -1.0929566,0 q 0.015503,0.245463 0.1472778,0.374654 0.1330669,0.1279 0.3694865,0.1279 0.1369426,0 0.2648418,-0.03359 0.1291911,-0.03359 0.2557983,-0.100769 l 0,0.224792 q -0.1278991,0.05426 -0.2622579,0.08268 -0.1343587,0.02842 -0.2725932,0.02842 -0.3462321,0 -0.5490621,-0.201538 -0.2015381,-0.201539 -0.2015381,-0.545187 0,-0.355275 0.1912028,-0.563273 0.1924947,-0.20929 0.5180563,-0.20929 0.2919718,0 0.4612122,0.188619 0.1705322,0.187327 0.1705322,0.510305 z M 7.9207052,28.780672 Q 7.9181214,28.585593 7.8108928,28.469321 7.7049561,28.35305 7.5292562,28.35305 q -0.1989543,0 -0.319102,0.112396 -0.1188558,0.112396 -0.1369425,0.316518 l 0.8474935,-0.0013 z"
         id="path4216"
         inkscape:connector-curvature="0" />
      <path
         d="m 9.7862245,28.850435 0,0.116272 -1.0929566,0 q 0.015503,0.245463 0.1472779,0.374654 0.1330668,0.1279 0.3694865,0.1279 0.1369425,0 0.2648417,-0.03359 0.1291911,-0.03359 0.2557984,-0.100769 l 0,0.224792 q -0.1278992,0.05426 -0.2622579,0.08268 -0.1343588,0.02842 -0.2725932,0.02842 -0.3462322,0 -0.5490622,-0.201538 -0.2015381,-0.201539 -0.2015381,-0.545187 0,-0.355275 0.1912028,-0.563273 0.1924948,-0.20929 0.5180563,-0.20929 0.2919719,0 0.4612122,0.188619 0.1705322,0.187327 0.1705322,0.510305 z M 9.5485129,28.780672 Q 9.5459291,28.585593 9.4387005,28.469321 9.3327638,28.35305 9.1570639,28.35305 q -0.1989542,0 -0.319102,0.112396 -0.1188558,0.112396 -0.1369425,0.316518 l 0.8474935,-0.0013 z"
         id="path4218"
         inkscape:connector-curvature="0" />
      <path
         d="m 11.12852,28.406018 0,-0.782898 0.237712,0 0,2.010213 -0.237712,0 0,-0.217041 q -0.07493,0.129191 -0.189911,0.192495 -0.113688,0.06201 -0.273885,0.06201 -0.262258,0 -0.427622,-0.20929 -0.164073,-0.20929 -0.164073,-0.550354 0,-0.341064 0.164073,-0.550354 0.165364,-0.20929 0.427622,-0.20929 0.160197,0 0.273885,0.0633 0.11498,0.06201 0.189911,0.191203 z m -0.810028,0.505137 q 0,0.262258 0.107229,0.41212 0.10852,0.148569 0.297139,0.148569 0.188619,0 0.29714,-0.148569 0.10852,-0.149862 0.10852,-0.41212 0,-0.262258 -0.10852,-0.410828 -0.108521,-0.149861 -0.29714,-0.149861 -0.188619,0 -0.297139,0.149861 -0.107229,0.14857 -0.107229,0.410828 z"
         id="path4220"
         inkscape:connector-curvature="0" />
      <path
         d="m 12.894562,28.911155 q 0,-0.262258 -0.108521,-0.410828 -0.107228,-0.149861 -0.295847,-0.149861 -0.188619,0 -0.29714,0.149861 -0.107228,0.14857 -0.107228,0.410828 0,0.262258 0.107228,0.41212 0.108521,0.148569 0.29714,0.148569 0.188619,0 0.295847,-0.148569 0.108521,-0.149862 0.108521,-0.41212 z m -0.808736,-0.505137 q 0.07493,-0.129191 0.188619,-0.191203 0.11498,-0.0633 0.273885,-0.0633 0.26355,0 0.427622,0.20929 0.165365,0.20929 0.165365,0.550354 0,0.341064 -0.165365,0.550354 -0.164072,0.20929 -0.427622,0.20929 -0.158905,0 -0.273885,-0.06201 -0.113688,-0.0633 -0.188619,-0.192495 l 0,0.217041 -0.239004,0 0,-2.010213 0.239004,0 0,0.782898 z"
         id="path4222"
         inkscape:connector-curvature="0" />
      <path
         d="m 14.192933,28.905987 q -0.288096,0 -0.399201,0.06589 -0.111104,0.06589 -0.111104,0.224792 0,0.126608 0.08268,0.201538 0.08397,0.07364 0.227376,0.07364 0.197663,0 0.316519,-0.139526 0.120147,-0.140818 0.120147,-0.373362 l 0,-0.05297 -0.236419,0 z m 0.474131,-0.09819 0,0.825531 -0.237712,0 0,-0.219625 q -0.08139,0.131775 -0.20283,0.195079 -0.121439,0.06201 -0.297139,0.06201 -0.222209,0 -0.353984,-0.124024 -0.130483,-0.125315 -0.130483,-0.334605 0,-0.244171 0.162781,-0.368194 0.164073,-0.124024 0.488342,-0.124024 l 0.333313,0 0,-0.02325 q 0,-0.164073 -0.10852,-0.253215 -0.107229,-0.09043 -0.302307,-0.09043 -0.124024,0 -0.241588,0.02971 -0.117564,0.02971 -0.226084,0.08914 l 0,-0.219625 q 0.130483,-0.05038 0.253214,-0.07493 0.122732,-0.02584 0.239004,-0.02584 0.313934,0 0.468964,0.162781 0.155029,0.162781 0.155029,0.49351 z"
         id="path4224"
         inkscape:connector-curvature="0" />
      <path
         d="m 16.19927,28.241945 0,0.222209 q -0.100769,-0.05555 -0.20283,-0.08268 -0.100769,-0.02842 -0.204122,-0.02842 -0.231252,0 -0.359151,0.147277 -0.127899,0.145986 -0.127899,0.410828 0,0.264842 0.127899,0.41212 0.127899,0.145986 0.359151,0.145986 0.103353,0 0.204122,-0.02713 0.102061,-0.02842 0.20283,-0.08397 l 0,0.219625 q -0.09948,0.04651 -0.206706,0.06976 -0.105937,0.02325 -0.226084,0.02325 -0.326854,0 -0.519348,-0.205414 -0.192495,-0.205414 -0.192495,-0.55423 0,-0.353984 0.193786,-0.556814 0.195079,-0.20283 0.53356,-0.20283 0.109812,0 0.214457,0.02326 0.104645,0.02196 0.20283,0.06718 z"
         id="path4226"
         inkscape:connector-curvature="0" />
      <path
         d="m 16.606222,27.62312 0.239003,0 0,1.187266 0.709259,-0.623993 0.303599,0 -0.767395,0.676961 0.799693,0.769979 -0.310059,0 -0.735097,-0.706675 0,0.706675 -0.239003,0 0,-2.010213 z"
         id="path4228"
         inkscape:connector-curvature="0" />
    </g>
    <g
       style="font-style:normal;font-weight:normal;font-size:2.64583349px;line-height:125%;font-family:sans-serif;letter-spacing:0px;word-spacing:0px;fill:#000000;fill-opacity:1;stroke:none;stroke-width:1px;stroke-linecap:butt;stroke-linejoin:miter;stroke-opacity:1"
       id="text4209"
       transform="translate(-0.02992372,1.0770277)">
      <path
         d="m 9.1123638,44.786416 0,0.275177 q -0.131775,-0.122731 -0.2816366,-0.183451 -0.1485698,-0.06072 -0.3165182,-0.06072 -0.3307292,0 -0.506429,0.20283 -0.1756999,0.201538 -0.1756999,0.583944 0,0.381114 0.1756999,0.583944 0.1756998,0.201538 0.506429,0.201538 0.1679484,0 0.3165182,-0.06072 0.1498616,-0.06072 0.2816366,-0.183451 l 0,0.272593 q -0.1369426,0.09302 -0.29068,0.139526 -0.1524455,0.04651 -0.3229777,0.04651 -0.4379578,0 -0.6898804,-0.267426 -0.2519226,-0.268717 -0.2519226,-0.732513 0,-0.465088 0.2519226,-0.732514 0.2519226,-0.268717 0.6898804,-0.268717 0.173116,0 0.3255615,0.04651 0.1537374,0.04522 0.2880962,0.136942 z"
         id="path4231"
         inkscape:connector-curvature="0" />
      <path
         d="m 9.4831422,45.995645 0,-0.875916 0.2377116,0 0,0.866872 q 0,0.205414 0.080098,0.308767 0.080099,0.102061 0.2402962,0.102061 0.192494,0 0.303599,-0.122731 0.112396,-0.122732 0.112396,-0.334605 l 0,-0.820364 0.237712,0 0,1.44694 -0.237712,0 0,-0.222208 q -0.08656,0.131775 -0.201538,0.19637 -0.113688,0.0633 -0.2648423,0.0633 -0.2493388,0 -0.3785299,-0.155029 -0.129191,-0.15503 -0.129191,-0.453461 z m 0.5981548,-0.910797 0,0 z"
         id="path4233"
         inkscape:connector-curvature="0" />
      <path
         d="m 11.4223,44.708902 0,0.410827 0.489635,0 0,0.184744 -0.489635,0 0,0.785481 q 0,0.176992 0.0478,0.227377 0.04909,0.05038 0.197662,0.05038 l 0.244172,0 0,0.198954 -0.244172,0 q -0.275177,0 -0.379821,-0.10206 -0.104645,-0.103353 -0.104645,-0.374655 l 0,-0.785481 -0.174408,0 0,-0.184744 0.174408,0 0,-0.410827 0.239003,0 z"
         id="path4235"
         inkscape:connector-curvature="0" />
      <path
         d="m 12.786558,45.286386 q -0.191203,0 -0.302307,0.149861 -0.111104,0.14857 -0.111104,0.408244 0,0.259674 0.109812,0.409536 0.111104,0.14857 0.303599,0.14857 0.189911,0 0.301015,-0.149862 0.111105,-0.149862 0.111105,-0.408244 0,-0.25709 -0.111105,-0.406952 -0.111104,-0.151153 -0.301015,-0.151153 z m 0,-0.201538 q 0.310059,0 0.487051,0.201538 0.176991,0.201538 0.176991,0.558105 0,0.355276 -0.176991,0.558106 -0.176992,0.201538 -0.487051,0.201538 -0.31135,0 -0.488342,-0.201538 -0.1757,-0.20283 -0.1757,-0.558106 0,-0.356567 0.1757,-0.558105 0.176992,-0.201538 0.488342,-0.201538 z"
         id="path4237"
         inkscape:connector-curvature="0" />
      <path
         d="m 15.467274,44.556456 0,0.197662 -0.227377,0 q -0.127899,0 -0.178284,0.05168 -0.04909,0.05168 -0.04909,0.186035 l 0,0.127899 0.391449,0 0,0.184744 -0.391449,0 0,1.262196 -0.239004,0 0,-1.262196 -0.652415,0 0,1.262196 -0.239003,0 0,-1.262196 -0.227376,0 0,-0.184744 0.227376,0 0,-0.100769 q 0,-0.241587 0.112396,-0.3514 0.112396,-0.111104 0.356568,-0.111104 l 0.224792,0 0,0.197662 -0.227376,0 q -0.127899,0 -0.178284,0.05168 -0.04909,0.05168 -0.04909,0.186035 l 0,0.127899 0.652415,0 0,-0.100769 q 0,-0.241587 0.112397,-0.3514 0.112396,-0.111104 0.356567,-0.111104 l 0.224793,0 z"
         id="path4239"
         inkscape:connector-curvature="0" />
    </g>
    <rect
       style="display:inline;fill:#3c3c3c;fill-opacity:1;stroke:none;stroke-width:0.40818104;stroke-opacity:1"
       id="rect4778-9"
       width="8.9958334"
       height="11.112597"
       x="1.4975471"
       y="13.359551"
       ry="1.3096442" />
    <g
       transform="translate(-0.0899545,-68.66126)"
       aria-label="Left"
       style="font-style:normal;font-variant:normal;font-weight:normal;font-stretch:normal;font-size:2.82222223px;line-height:1.25;font-family:Arial;-inkscape-font-specification:'Arial, Normal';text-align:start;letter-spacing:0px;word-spacing:0px;writing-mode:lr-tb;text-anchor:start;display:inline;fill:#ffffff;fill-opacity:1;stroke:none;stroke-width:0.26458335"
       id="text955-1">
      <path
         inkscape:connector-curvature="0"
         d="m 3.6462895,92.074982 0,-2.020204 0.2673394,0 0,1.781803 0.9949436,0 0,0.238401 z"
         id="path918-2" />
      <path
         inkscape:connector-curvature="0"
         d="m 6.1984162,91.603693 0.2563151,0.03169 q -0.060634,0.22462 -0.2246202,0.348643 -0.1639866,0.124024 -0.4189236,0.124024 -0.3210829,0 -0.5098742,-0.19706 -0.1874132,-0.198437 -0.1874132,-0.555349 0,-0.369314 0.1901693,-0.573264 0.1901693,-0.20395 0.4933377,-0.20395 0.2935221,0 0.4795573,0.199816 0.1860351,0.199815 0.1860351,0.562239 0,0.02205 -0.00138,0.06615 l -1.0914042,0 q 0.01378,0.241157 0.1364257,0.369314 0.1226454,0.128158 0.3059245,0.128158 0.1364258,0 0.2328885,-0.07166 0.096463,-0.07166 0.1529622,-0.228754 z m -0.8144206,-0.401009 0.8171767,0 Q 6.1846363,91.018026 6.1074653,90.925698 5.988954,90.782382 5.8001628,90.782382 q -0.1708768,0 -0.28801,0.114377 -0.1157552,0.114377 -0.1281576,0.305925 z"
         id="path920-7" />
      <path
         inkscape:connector-curvature="0"
         d="m 6.8268016,92.074982 0,-1.270552 -0.2191081,0 0,-0.192925 0.2191081,0 0,-0.155718 q 0,-0.14745 0.026183,-0.219108 0.035829,-0.09646 0.1254015,-0.155719 0.09095,-0.06063 0.253559,-0.06063 0.1047309,0 0.2315104,0.0248 l -0.037207,0.216352 q -0.07717,-0.01378 -0.1460721,-0.01378 -0.1129991,0 -0.1598524,0.04823 -0.046853,0.04823 -0.046853,0.180523 l 0,0.135048 0.2852533,0 0,0.192927 -0.2852539,0 0,1.270552 z"
         id="path922-0" />
      <path
         inkscape:connector-curvature="0"
         d="m 8.0918405,91.853118 0.035829,0.219108 q -0.1047309,0.02205 -0.1874132,0.02205 -0.1350477,0 -0.2094618,-0.04272 -0.074414,-0.04272 -0.1047309,-0.111621 -0.030317,-0.07028 -0.030317,-0.293522 l 0,-0.841983 -0.1819009,0 0,-0.192925 0.1819011,0 0,-0.362424 0.2466688,-0.148828 0,0.511252 0.2494249,0 0,0.192925 -0.2494249,0 0,0.855762 q 0,0.106109 0.012402,0.136426 0.01378,0.03032 0.042719,0.04823 0.030317,0.01792 0.085438,0.01792 0.041341,0 0.108865,-0.0096 z"
         id="path924-9" />
    </g>
    <rect
       style="display:inline;fill:#3c3c3c;fill-opacity:1;stroke:none;stroke-width:0.40818104;stroke-opacity:1"
       id="rect4778-3-3"
       width="8.9958334"
       height="11.112597"
       x="13.139214"
       y="13.35962"
       ry="1.3096442" />
    <g
       transform="translate(-0.0899545,-68.66126)"
       aria-label="Right"
       style="font-style:normal;font-variant:normal;font-weight:normal;font-stretch:normal;font-size:2.82222223px;line-height:1.25;font-family:Arial;-inkscape-font-specification:'Arial, Normal';text-align:start;letter-spacing:0px;word-spacing:0px;writing-mode:lr-tb;text-anchor:start;display:inline;fill:#ffffff;fill-opacity:1;stroke:none;stroke-width:0.26458335"
       id="text959-6">
      <path
         inkscape:connector-curvature="0"
         d="m 14.542438,92.074982 0,-2.020204 0.895725,0 q 0.270095,0 0.410655,0.05512 0.14056,0.05374 0.22462,0.191548 0.08406,0.137803 0.08406,0.304546 0,0.214974 -0.139182,0.362424 -0.139182,0.14745 -0.429948,0.187413 0.106109,0.05099 0.16123,0.100597 0.117134,0.107487 0.221865,0.268717 l 0.351399,0.549838 -0.33624,0 -0.267339,-0.420301 q -0.117134,-0.181901 -0.192926,-0.278364 -0.07579,-0.09646 -0.136426,-0.135047 -0.05926,-0.03858 -0.121267,-0.05374 -0.04547,-0.0096 -0.148828,-0.0096 l -0.310059,0 0,0.897103 z m 0.267339,-1.128614 0.574642,0 q 0.183279,0 0.286632,-0.03721 0.103353,-0.03858 0.157097,-0.121267 0.05374,-0.08406 0.05374,-0.181901 0,-0.143316 -0.104731,-0.235645 -0.103353,-0.09233 -0.327973,-0.09233 l -0.63941,0 z"
         id="path907-0" />
      <path
         inkscape:connector-curvature="0"
         d="m 16.547483,90.340032 0,-0.285254 0.248047,0 0,0.285254 z m 0,1.73495 0,-1.463477 0.248047,0 0,1.463477 z"
         id="path909-6" />
      <path
         inkscape:connector-curvature="0"
         d="m 17.129016,92.196249 0.241156,0.03583 q 0.01516,0.111621 0.08406,0.162609 0.09233,0.0689 0.252181,0.0689 0.172254,0 0.265961,-0.0689 0.09371,-0.0689 0.12678,-0.192926 0.01929,-0.07579 0.01791,-0.318327 -0.162608,0.191548 -0.405143,0.191548 -0.301791,0 -0.467155,-0.21773 -0.165365,-0.21773 -0.165365,-0.522277 0,-0.209462 0.07579,-0.385851 0.07579,-0.177766 0.219108,-0.274229 0.144694,-0.09646 0.338998,-0.09646 0.259071,0 0.427192,0.209462 l 0,-0.176389 0.228754,0 0,1.265039 q 0,0.341754 -0.07028,0.483692 -0.0689,0.143316 -0.220486,0.225998 -0.150206,0.08268 -0.370692,0.08268 -0.261828,0 -0.423058,-0.118511 -0.16123,-0.117133 -0.155718,-0.354156 z m 0.205327,-0.879188 q 0,0.28801 0.114378,0.420301 0.114377,0.132292 0.286631,0.132292 0.170877,0 0.286632,-0.130914 0.115756,-0.132291 0.115756,-0.413411 0,-0.268718 -0.11989,-0.405143 -0.118511,-0.136426 -0.286632,-0.136426 -0.165364,0 -0.281119,0.135048 -0.115756,0.133669 -0.115756,0.398253 z"
         id="path911-2" />
      <path
         inkscape:connector-curvature="0"
         d="m 18.745454,92.074982 0,-2.020204 0.248047,0 0,0.724848 q 0.173633,-0.201194 0.438216,-0.201194 0.162609,0 0.282498,0.06477 0.119889,0.06339 0.170877,0.176389 0.05236,0.112999 0.05236,0.327973 l 0,0.92742 -0.248042,0 0,-0.92742 q 0,-0.186035 -0.0813,-0.270096 -0.07993,-0.08544 -0.227376,-0.08544 -0.110243,0 -0.208084,0.05788 -0.09646,0.0565 -0.137804,0.15434 -0.04134,0.09784 -0.04134,0.270095 l 0,0.800641 z"
         id="path913-6" />
      <path
         inkscape:connector-curvature="0"
         d="m 20.857987,91.853118 0.03583,0.219108 q -0.104731,0.02205 -0.187413,0.02205 -0.135048,0 -0.209462,-0.04272 -0.07441,-0.04272 -0.104731,-0.111621 -0.03032,-0.07028 -0.03032,-0.293522 l 0,-0.841983 -0.181901,0 0,-0.192925 0.181901,0 0,-0.362424 0.246669,-0.148828 0,0.511252 0.249425,0 0,0.192925 -0.249425,0 0,0.855762 q 0,0.106109 0.0124,0.136426 0.01378,0.03032 0.04272,0.04823 0.03032,0.01792 0.08544,0.01792 0.04134,0 0.108865,-0.0096 z"
         id="path915-1" />
    </g>
    <g
       style="font-style:normal;font-weight:normal;font-size:2.64583349px;line-height:125%;font-family:sans-serif;letter-spacing:0px;word-spacing:0px;fill:#000000;fill-opacity:1;stroke:none;stroke-width:1px;stroke-linecap:butt;stroke-linejoin:miter;stroke-opacity:1"
       id="text4365"
       transform="translate(0.16062742,-2.1419376)">
      <path
         d="m 7.6512125,11.829511 0.4973857,0 0,1.928823 -0.4973857,0 0,-1.928823 z"
         style="font-style:normal;font-variant:normal;font-weight:bold;font-stretch:normal;font-family:sans-serif;-inkscape-font-specification:'sans-serif Bold'"
         id="path4378"
         inkscape:connector-curvature="0" />
      <path
         d="m 10.072254,12.877251 0,0.881083 -0.4650884,0 0,-0.143402 0,-0.530975 q 0,-0.187327 -0.00904,-0.258382 -0.00775,-0.07106 -0.028422,-0.104645 -0.02713,-0.04522 -0.073639,-0.06976 -0.046509,-0.02584 -0.1059367,-0.02584 -0.144694,0 -0.2273763,0.112397 -0.082682,0.111104 -0.082682,0.308766 l 0,0.711843 -0.4625041,0 0,-1.44694 0.4625041,0 0,0.211873 q 0.1046447,-0.126607 0.2222086,-0.186035 0.1175639,-0.06072 0.2596741,-0.06072 0.2506307,0 0.3798218,0.153738 0.1304839,0.153737 0.1304839,0.447001 z"
         style="font-style:normal;font-variant:normal;font-weight:bold;font-stretch:normal;font-family:sans-serif;-inkscape-font-specification:'sans-serif Bold'"
         id="path4380"
         inkscape:connector-curvature="0" />
      <path
         d="m 10.966256,13.549045 0,0.759643 -0.462504,0 0,-1.997294 0.462504,0 0,0.211873 q 0.0956,-0.126607 0.211873,-0.186035 0.116272,-0.06072 0.267426,-0.06072 0.267426,0 0.43925,0.213166 0.171824,0.211873 0.171824,0.546478 0,0.334605 -0.171824,0.54777 -0.171824,0.211874 -0.43925,0.211874 -0.151154,0 -0.267426,-0.05943 -0.116272,-0.06072 -0.211873,-0.187327 z m 0.307475,-0.936636 q -0.14857,0 -0.228668,0.109813 -0.07881,0.10852 -0.07881,0.313934 0,0.205414 0.07881,0.315226 0.0801,0.108521 0.228668,0.108521 0.14857,0 0.226084,-0.108521 0.07881,-0.10852 0.07881,-0.315226 0,-0.206706 -0.07881,-0.315226 -0.07751,-0.108521 -0.226084,-0.108521 z"
         style="font-style:normal;font-variant:normal;font-weight:bold;font-stretch:normal;font-family:sans-serif;-inkscape-font-specification:'sans-serif Bold'"
         id="path4382"
         inkscape:connector-curvature="0" />
      <path
         d="m 12.384774,13.195061 0,-0.883667 0.465088,0 0,0.144694 q 0,0.117564 -0.0013,0.295848 -0.0013,0.176991 -0.0013,0.236419 0,0.174408 0.009,0.251923 0.009,0.07622 0.03101,0.111104 0.02842,0.04522 0.07364,0.06976 0.04651,0.02455 0.105937,0.02455 0.144694,0 0.227376,-0.111105 0.08268,-0.111104 0.08268,-0.308766 l 0,-0.714427 0.462505,0 0,1.44694 -0.462505,0 0,-0.209289 q -0.104644,0.126607 -0.222208,0.187327 -0.116272,0.05943 -0.25709,0.05943 -0.250631,0 -0.382406,-0.153738 -0.130483,-0.153737 -0.130483,-0.447001 z"
         style="font-style:normal;font-variant:normal;font-weight:bold;font-stretch:normal;font-family:sans-serif;-inkscape-font-specification:'sans-serif Bold'"
         id="path4384"
         inkscape:connector-curvature="0" />
      <path
         d="m 14.791604,11.900566 0,0.410828 0.476715,0 0,0.330729 -0.476715,0 0,0.613658 q 0,0.100769 0.04005,0.136942 0.04005,0.03488 0.158905,0.03488 l 0.237712,0 0,0.330729 -0.396617,0 q -0.273885,0 -0.388865,-0.113688 Q 14.3291,13.529666 14.3291,13.255781 l 0,-0.613658 -0.22996,0 0,-0.330729 0.22996,0 0,-0.410828 0.462504,0 z"
         style="font-style:normal;font-variant:normal;font-weight:bold;font-stretch:normal;font-family:sans-serif;-inkscape-font-specification:'sans-serif Bold'"
         id="path4386"
         inkscape:connector-curvature="0" />
      <path
         d="m 16.682962,12.356611 0,0.3514 q -0.14857,-0.06201 -0.286805,-0.09302 -0.138234,-0.03101 -0.260966,-0.03101 -0.131775,0 -0.19637,0.03359 -0.0633,0.0323 -0.0633,0.100769 0,0.05555 0.0478,0.08527 0.04909,0.02971 0.174408,0.04393 l 0.08139,0.01163 q 0.355276,0.04522 0.478007,0.14857 0.122732,0.103353 0.122732,0.32427 0,0.231252 -0.170532,0.347524 -0.170533,0.116272 -0.509013,0.116272 -0.143402,0 -0.29714,-0.02326 -0.152445,-0.02196 -0.313934,-0.06718 l 0,-0.3514 q 0.138234,0.06718 0.282928,0.100769 0.145986,0.03359 0.295848,0.03359 0.135651,0 0.204122,-0.03747 0.06847,-0.03746 0.06847,-0.111104 0,-0.06201 -0.0478,-0.09173 -0.04651,-0.03101 -0.187327,-0.0478 l -0.08139,-0.01034 q -0.308767,-0.03876 -0.43279,-0.143402 -0.124024,-0.104645 -0.124024,-0.31781 0,-0.22996 0.157614,-0.341064 0.157613,-0.111105 0.483174,-0.111105 0.127899,0 0.268718,0.01938 0.140818,0.01938 0.306183,0.06072 z"
         style="font-style:normal;font-variant:normal;font-weight:bold;font-stretch:normal;font-family:sans-serif;-inkscape-font-specification:'sans-serif Bold'"
         id="path4388"
         inkscape:connector-curvature="0" />
    </g>
    <flowRoot
       xml:space="preserve"
       id="flowRoot4369"
       style="fill:black;stroke:none;stroke-opacity:1;stroke-width:1px;stroke-linejoin:miter;stroke-linecap:butt;fill-opacity:1;font-family:sans-serif;font-style:normal;font-weight:bold;font-size:10px;line-height:125%;letter-spacing:0px;word-spacing:0px;-inkscape-font-specification:'sans-serif Bold';font-stretch:normal;font-variant:normal;"><flowRegion
         id="flowRegion4371"><rect
           id="rect4373"
           width="46"
           height="22"
           x="-84"
           y="124"
           style="-inkscape-font-specification:'sans-serif Bold';font-family:sans-serif;font-weight:bold;font-style:normal;font-stretch:normal;font-variant:normal;" /></flowRegion><flowPara
         id="flowPara4375" /></flowRoot>    <path
       style="opacity:1;fill:#ffffff;fill-opacity:1"
       d="m 6.5086164,92.177251 11.0311226,0 c 0.3157,0 0.569856,0.254156 0.569856,0.569856 l 0,2.519282 c 0,0.3157 -0.254156,0.569856 -0.569856,0.569856 l -11.0311226,0 c -0.3157004,0 -0.5698563,-0.254156 -0.5698563,-0.569856 l 0,-2.519282 c 0,-0.3157 0.2541559,-0.569856 0.5698563,-0.569856 z"
       id="rect3417"
       inkscape:connector-curvature="0" />
    <g
       id="g4231"
       transform="translate(2.2031345,-3.0000856)">
      <path
         style="opacity:1;fill:#000000;fill-opacity:1"
         d="m 7.1815358,97.006836 a 1.5875002,1.5875001 0 0 1 -1.5875002,1.5875 1.5875002,1.5875001 0 0 1 -1.5875002,-1.5875 1.5875002,1.5875001 0 0 1 1.5875002,-1.5875 1.5875002,1.5875001 0 0 1 1.5875002,1.5875 z"
         id="path4229"
         inkscape:connector-curvature="0" />
      <g
         style="font-style:normal;font-variant:normal;font-weight:bold;font-stretch:normal;font-size:2.64583349px;line-height:125%;font-family:'Bitstream Charter';-inkscape-font-specification:'Bitstream Charter Bold';letter-spacing:0px;word-spacing:0px;fill:#ffffff;fill-opacity:1;stroke:none;stroke-width:1px;stroke-linecap:butt;stroke-linejoin:miter;stroke-opacity:1"
         id="text4219">
        <path
           d="m 5.4609994,97.776773 0,-0.187854 c -0.1296459,0.07937 -0.254,0.119063 -0.3677709,0.119063 -0.2460625,0 -0.4074583,-0.187854 -0.4074583,-0.505354 0,-0.301626 0.1613958,-0.492126 0.3466041,-0.492126 0.018521,0 0.039688,0.0026 0.066146,0.0079 l 0,0.280458 c 0.047625,0.0344 0.097896,0.05027 0.1561042,0.05027 0.1137708,0 0.1905,-0.07673 0.1905,-0.179917 0,-0.161395 -0.1640417,-0.288395 -0.4365626,-0.288395 -0.396875,0 -0.682625,0.283104 -0.682625,0.685271 0,0.383645 0.2513542,0.650875 0.635,0.650875 0.1693334,0 0.3307292,-0.04762 0.5000626,-0.14023 z"
           id="path4255"
           inkscape:connector-curvature="0" />
        <path
           d="m 5.6503418,97.837628 c 0.1640417,0.05821 0.3413126,0.08731 0.5106459,0.08731 0.4339167,0 0.7011459,-0.227542 0.7011459,-0.542396 0,-0.156104 -0.084667,-0.298979 -0.238125,-0.396875 -0.1561042,-0.100542 -0.2963334,-0.140229 -0.3783542,-0.1905 -0.1402292,-0.08467 -0.2143125,-0.164042 -0.2143125,-0.28575 0,-0.145521 0.1190625,-0.251354 0.3122083,-0.251354 0.084667,0 0.1455209,0.01323 0.1931459,0.03704 l 0.037042,0.03704 0.044979,0.275167 0.1905,0 0,-0.428625 c -0.1666875,-0.05821 -0.333375,-0.08996 -0.4974167,-0.08996 -0.3783542,0 -0.6244167,0.227541 -0.6244167,0.521229 0,0.129646 0.0635,0.259291 0.1852084,0.362479 0.1164166,0.0979 0.2407708,0.142875 0.3466041,0.195792 0.1878542,0.09525 0.2831042,0.1905 0.2831042,0.333375 0,0.145521 -0.127,0.251354 -0.3413125,0.251354 -0.082021,0 -0.15875,-0.01323 -0.2328333,-0.03704 l -0.034396,-0.03969 -0.042333,-0.3175 -0.2010834,0 0,0.478896 z"
           id="path4257"
           inkscape:connector-curvature="0" />
      </g>
    </g>
    <g
       transform="matrix(0.95277332,0,0,1.0495676,0.0864676,-2.7612788)"
       style="font-style:normal;font-variant:normal;font-weight:bold;font-stretch:normal;font-size:1.56688583px;line-height:125%;font-family:sans-serif;-inkscape-font-specification:'sans-serif Bold';letter-spacing:0px;word-spacing:0px;fill:#000000;fill-opacity:1;stroke:none;stroke-width:1px;stroke-linecap:butt;stroke-linejoin:miter;stroke-opacity:1"
       id="text4236">
      <path
         d="m 11.602219,92.705627 q -0.0811,0.04208 -0.169083,0.0635 -0.08798,0.02142 -0.18362,0.02142 -0.285375,0 -0.452163,-0.159137 -0.166787,-0.159901 -0.166787,-0.433035 0,-0.273899 0.166787,-0.433036 0.166788,-0.159902 0.452163,-0.159902 0.09563,0 0.18362,0.02142 0.08798,0.02142 0.169083,0.0635 l 0,0.23641 q -0.08186,-0.05585 -0.161433,-0.08186 -0.07957,-0.02601 -0.167552,-0.02601 -0.157607,0 -0.247887,0.100991 -0.09028,0.100991 -0.09028,0.27849 0,0.176733 0.09028,0.277724 0.09028,0.100991 0.247887,0.100991 0.08798,0 0.167552,-0.02601 0.07957,-0.02601 0.161433,-0.08186 l 0,0.23641 z"
         id="path4241"
         inkscape:connector-curvature="0" />
      <path
         d="m 12.672567,91.662057 0,0.241765 q -0.09411,-0.04208 -0.18362,-0.0635 -0.08951,-0.02142 -0.169083,-0.02142 -0.105581,0 -0.156076,0.02907 -0.05049,0.02907 -0.05049,0.09028 0,0.04591 0.03366,0.07192 0.03443,0.02525 0.123943,0.04361 l 0.125474,0.02525 q 0.190505,0.03825 0.270838,0.116292 0.08033,0.07804 0.08033,0.221874 0,0.188975 -0.112467,0.28155 -0.111702,0.09181 -0.341991,0.09181 -0.108642,0 -0.218048,-0.02066 -0.109407,-0.02066 -0.218814,-0.06121 l 0,-0.248652 q 0.109407,0.05815 0.211163,0.08799 0.102521,0.02907 0.197391,0.02907 0.0964,0 0.14766,-0.03213 0.05126,-0.03213 0.05126,-0.09181 0,-0.05356 -0.03519,-0.08263 -0.03443,-0.02907 -0.13848,-0.05203 l -0.113997,-0.02525 q -0.171378,-0.03672 -0.250946,-0.117058 -0.0788,-0.08033 -0.0788,-0.216518 0,-0.170613 0.110172,-0.262422 0.110172,-0.09181 0.316744,-0.09181 0.0941,0 0.193565,0.01454 0.09946,0.01377 0.205807,0.04208 z"
         id="path4243"
         inkscape:connector-curvature="0" />
      <path
         d="m 13.528692,91.818898 q -0.134654,0 -0.208867,0.09946 -0.07421,0.09946 -0.07421,0.28002 0,0.179794 0.07421,0.279254 0.07421,0.09946 0.208867,0.09946 0.13542,0 0.209633,-0.09946 0.07421,-0.09946 0.07421,-0.279254 0,-0.180559 -0.07421,-0.28002 -0.07421,-0.09946 -0.209633,-0.09946 z m 0,-0.213457 q 0.27543,0 0.431506,0.157607 0.156077,0.157606 0.156077,0.435331 0,0.276959 -0.156077,0.434566 -0.156076,0.157606 -0.431506,0.157606 -0.274664,0 -0.431505,-0.157606 -0.156077,-0.157607 -0.156077,-0.434566 0,-0.277725 0.156077,-0.435331 0.156841,-0.157607 0.431505,-0.157607 z"
         id="path4245"
         inkscape:connector-curvature="0" />
      <path
         d="m 14.338148,91.626098 0.294556,0 0,0.684748 q 0,0.14154 0.0459,0.202746 0.04667,0.06044 0.151486,0.06044 0.105581,0 0.151486,-0.06044 0.04667,-0.06121 0.04667,-0.202746 l 0,-0.684748 0.294556,0 0,0.684748 q 0,0.24253 -0.121648,0.361118 -0.121648,0.118587 -0.371064,0.118587 -0.248651,0 -0.370299,-0.118587 -0.121648,-0.118588 -0.121648,-0.361118 l 0,-0.684748 z"
         id="path4247"
         inkscape:connector-curvature="0" />
      <path
         d="m 15.611243,91.626098 0.328985,0 0.415439,0.783443 0,-0.783443 0.279254,0 0,1.142266 -0.328985,0 -0.415439,-0.783443 0,0.783443 -0.279254,0 0,-1.142266 z"
         id="path4249"
         inkscape:connector-curvature="0" />
      <path
         d="m 17.218678,91.848737 0,0.696988 0.105581,0 q 0.180559,0 0.27543,-0.08951 0.09563,-0.08951 0.09563,-0.260128 0,-0.169848 -0.09487,-0.258597 -0.09487,-0.08875 -0.276195,-0.08875 l -0.105581,0 z m -0.294556,-0.222639 0.310623,0 q 0.260127,0 0.387131,0.03749 0.127768,0.03672 0.218813,0.125473 0.08033,0.07727 0.119353,0.178264 0.03902,0.100991 0.03902,0.228759 0,0.129299 -0.03902,0.231055 -0.03902,0.100991 -0.119353,0.178264 -0.09181,0.08875 -0.220343,0.126238 -0.128534,0.03672 -0.385601,0.03672 l -0.310623,0 0,-1.142266 z"
         id="path4251"
         inkscape:connector-curvature="0" />
    </g>
  </g>
</svg>
